<svg width="40" height="40" viewBox="0 0 40 40" fill="none" xmlns="http://www.w3.org/2000/svg">
    <path fill-rule="evenodd" clip-rule="evenodd"
        d="M15.6285 17.9796C16.3055 17.534 17.0582 17.1931 17.8622 16.9804L19 14.1364L16.5455 8H18.1818L19.8182 12.0909L21.4545 8H23.0909L19.5989 16.7306C19.6715 16.7284 19.7445 16.7273 19.8182 16.7273C21.3651 16.7273 22.8051 17.1882 24.0078 17.9796L28 8H29.6364L25.2405 18.9893C26.6091 20.3693 27.4545 22.2685 27.4545 24.3636C27.4545 28.5784 24.0329 32 19.8182 32C15.6035 32 12.1818 28.5784 12.1818 24.3636C12.1818 22.2685 13.0273 20.3693 14.3958 18.9893L10 8H11.6364L15.6285 17.9796ZM19.6922 18.3636C16.3807 18.3636 13.6922 21.0522 13.6922 24.3636C13.6922 27.6751 16.3807 30.3636 19.6922 30.3636C23.0036 30.3636 25.6922 27.6751 25.6922 24.3636C25.6922 21.0522 23.0036 18.3636 19.6922 18.3636Z"
        fill="black" />
</svg>